<svg width="162" height="37" viewBox="0 0 162 37" fill="none" xmlns="http://www.w3.org/2000/svg">
<path d="M17.0939 17.5965L23.7707 5.13062H20.2914L15.3004 14.4445L10.0071 5.13062H6.47656L13.5889 17.6423L15.3824 20.7944L21.9106 32.1977H25.4412L17.0939 17.5965Z" fill="url(#paint0_linear_57_22)"/>
<path d="M17.0939 17.5965L23.7707 5.13062H20.2914L15.3004 14.4445L10.0071 5.13062H6.47656L13.5889 17.6423L15.3824 20.7944L21.9106 32.1977H25.4412L17.0939 17.5965Z" fill="url(#paint1_linear_57_22)"/>
<path d="M36.161 5.13062V11.9201L40.6908 22.1162H32.8047V25.1666H41.9821L44.9644 32.1977H48.3002L36.161 5.13062Z" fill="url(#paint2_linear_57_22)"/>
<path d="M36.161 5.13062V11.9201L40.6908 22.1162H32.8047V25.1666H41.9821L44.9644 32.1977H48.3002L36.161 5.13062Z" fill="url(#paint3_linear_57_22)"/>
<path d="M147.309 5.13062V11.9201L151.839 22.1162H143.953V25.1666H153.131L156.113 32.1977H159.449L147.309 5.13062Z" fill="url(#paint4_linear_57_22)"/>
<path d="M147.309 5.13062V11.9201L151.839 22.1162H143.953V25.1666H153.131L156.113 32.1977H159.449L147.309 5.13062Z" fill="url(#paint5_linear_57_22)"/>
<path d="M78.8504 5.13062H75.7759V32.1977H78.8504V5.13062Z" fill="url(#paint6_linear_57_22)"/>
<path d="M78.8504 5.13062H75.7759V32.1977H78.8504V5.13062Z" fill="url(#paint7_linear_57_22)"/>
<path d="M78.8504 5.13062H75.7759V32.1977H78.8504V5.13062Z" fill="url(#paint8_linear_57_22)"/>
<path d="M86.2139 32.1977H89.8106L106.442 5.13062H86.4799V8.181H100.978L86.2139 32.1977Z" fill="url(#paint9_linear_57_22)"/>
<path d="M86.2139 32.1977H89.8106L106.442 5.13062H86.4799V8.181H100.978L86.2139 32.1977Z" fill="url(#paint10_linear_57_22)"/>
<path d="M86.2139 32.1977H89.8106L106.442 5.13062H86.4799V8.181H100.978L86.2139 32.1977Z" fill="url(#paint11_linear_57_22)"/>
<path d="M111.48 32.3619L114.228 15.0818L122.479 32.8067L130.73 15.0818L133.477 32.3619H136.589L132.163 4.52161L122.479 25.374L112.795 4.52161L108.368 32.3619H111.48Z" fill="url(#paint12_linear_57_22)"/>
<path d="M111.48 32.3619L114.228 15.0818L122.479 32.8067L130.73 15.0818L133.477 32.3619H136.589L132.163 4.52161L122.479 25.374L112.795 4.52161L108.368 32.3619H111.48Z" fill="url(#paint13_linear_57_22)"/>
<path d="M111.48 32.3619L114.228 15.0818L122.479 32.8067L130.73 15.0818L133.477 32.3619H136.589L132.163 4.52161L122.479 25.374L112.795 4.52161L108.368 32.3619H111.48Z" fill="url(#paint14_linear_57_22)"/>
<path d="M58.9129 17.2312H54.0322L64.4059 32.1977H68.4124L60.2318 20.3951C63.8785 19.7719 66.6618 16.6117 66.6618 12.8184C66.6618 8.57923 63.1856 5.13062 58.9129 5.13062H55.6576V8.40597H58.9129C61.3652 8.40597 63.3605 10.3854 63.3605 12.8184C63.3605 15.2515 61.3652 17.2312 58.9129 17.2312Z" fill="url(#paint15_linear_57_22)"/>
<path d="M58.9129 17.2312H54.0322L64.4059 32.1977H68.4124L60.2318 20.3951C63.8785 19.7719 66.6618 16.6117 66.6618 12.8184C66.6618 8.57923 63.1856 5.13062 58.9129 5.13062H55.6576V8.40597H58.9129C61.3652 8.40597 63.3605 10.3854 63.3605 12.8184C63.3605 15.2515 61.3652 17.2312 58.9129 17.2312Z" fill="url(#paint16_linear_57_22)"/>
<path d="M58.9129 17.2312H54.0322L64.4059 32.1977H68.4124L60.2318 20.3951C63.8785 19.7719 66.6618 16.6117 66.6618 12.8184C66.6618 8.57923 63.1856 5.13062 58.9129 5.13062H55.6576V8.40597H58.9129C61.3652 8.40597 63.3605 10.3854 63.3605 12.8184C63.3605 15.2515 61.3652 17.2312 58.9129 17.2312Z" fill="url(#paint17_linear_57_22)"/>
<defs>
<linearGradient id="paint0_linear_57_22" x1="6.47656" y1="18.6642" x2="159.449" y2="18.6642" gradientUnits="userSpaceOnUse">
<stop stop-color="#EA422A"/>
<stop offset="0.0947882" stop-color="#EC5128"/>
<stop offset="0.523442" stop-color="#F69020"/>
<stop offset="0.836995" stop-color="#FDB71B"/>
<stop offset="1" stop-color="#FFC619"/>
</linearGradient>
<linearGradient id="paint1_linear_57_22" x1="6.47656" y1="18.6642" x2="159.449" y2="18.6642" gradientUnits="userSpaceOnUse">
<stop stop-color="#EA422A"/>
<stop offset="0.0947882" stop-color="#EC5128"/>
<stop offset="0.523442" stop-color="#F69020"/>
<stop offset="0.836995" stop-color="#FDB71B"/>
<stop offset="1" stop-color="#FFC619"/>
</linearGradient>
<linearGradient id="paint2_linear_57_22" x1="6.47663" y1="18.6642" x2="159.449" y2="18.6642" gradientUnits="userSpaceOnUse">
<stop stop-color="#EA422A"/>
<stop offset="0.0947882" stop-color="#EC5128"/>
<stop offset="0.523442" stop-color="#F69020"/>
<stop offset="0.836995" stop-color="#FDB71B"/>
<stop offset="1" stop-color="#FFC619"/>
</linearGradient>
<linearGradient id="paint3_linear_57_22" x1="6.47663" y1="18.6642" x2="159.449" y2="18.6642" gradientUnits="userSpaceOnUse">
<stop stop-color="#EA422A"/>
<stop offset="0.0947882" stop-color="#EC5128"/>
<stop offset="0.523442" stop-color="#F69020"/>
<stop offset="0.836995" stop-color="#FDB71B"/>
<stop offset="1" stop-color="#FFC619"/>
</linearGradient>
<linearGradient id="paint4_linear_57_22" x1="6.47692" y1="18.6642" x2="159.449" y2="18.6642" gradientUnits="userSpaceOnUse">
<stop stop-color="#EA422A"/>
<stop offset="0.0947882" stop-color="#EC5128"/>
<stop offset="0.523442" stop-color="#F69020"/>
<stop offset="0.836995" stop-color="#FDB71B"/>
<stop offset="1" stop-color="#FFC619"/>
</linearGradient>
<linearGradient id="paint5_linear_57_22" x1="6.47692" y1="18.6642" x2="159.449" y2="18.6642" gradientUnits="userSpaceOnUse">
<stop stop-color="#EA422A"/>
<stop offset="0.0947882" stop-color="#EC5128"/>
<stop offset="0.523442" stop-color="#F69020"/>
<stop offset="0.836995" stop-color="#FDB71B"/>
<stop offset="1" stop-color="#FFC619"/>
</linearGradient>
<linearGradient id="paint6_linear_57_22" x1="6.47608" y1="18.6642" x2="159.449" y2="18.6642" gradientUnits="userSpaceOnUse">
<stop stop-color="#EA422A"/>
<stop offset="0.0947882" stop-color="#EC5128"/>
<stop offset="0.523442" stop-color="#F69020"/>
<stop offset="0.836995" stop-color="#FDB71B"/>
<stop offset="1" stop-color="#FFC619"/>
</linearGradient>
<linearGradient id="paint7_linear_57_22" x1="6.47608" y1="18.6642" x2="159.449" y2="18.6642" gradientUnits="userSpaceOnUse">
<stop stop-color="#EA422A"/>
<stop offset="0.0947882" stop-color="#EC5128"/>
<stop offset="0.523442" stop-color="#F69020"/>
<stop offset="0.836995" stop-color="#FDB71B"/>
<stop offset="1" stop-color="#FFC619"/>
</linearGradient>
<linearGradient id="paint8_linear_57_22" x1="6.47608" y1="18.6642" x2="159.449" y2="18.6642" gradientUnits="userSpaceOnUse">
<stop stop-color="#EA422A"/>
<stop offset="0.0947882" stop-color="#EC5128"/>
<stop offset="0.523442" stop-color="#F69020"/>
<stop offset="0.836995" stop-color="#FDB71B"/>
<stop offset="1" stop-color="#FFC619"/>
</linearGradient>
<linearGradient id="paint9_linear_57_22" x1="6.47658" y1="18.6642" x2="159.449" y2="18.6642" gradientUnits="userSpaceOnUse">
<stop stop-color="#EA422A"/>
<stop offset="0.0947882" stop-color="#EC5128"/>
<stop offset="0.523442" stop-color="#F69020"/>
<stop offset="0.836995" stop-color="#FDB71B"/>
<stop offset="1" stop-color="#FFC619"/>
</linearGradient>
<linearGradient id="paint10_linear_57_22" x1="6.47658" y1="18.6642" x2="159.449" y2="18.6642" gradientUnits="userSpaceOnUse">
<stop stop-color="#EA422A"/>
<stop offset="0.0947882" stop-color="#EC5128"/>
<stop offset="0.523442" stop-color="#F69020"/>
<stop offset="0.836995" stop-color="#FDB71B"/>
<stop offset="1" stop-color="#FFC619"/>
</linearGradient>
<linearGradient id="paint11_linear_57_22" x1="6.47658" y1="18.6642" x2="159.449" y2="18.6642" gradientUnits="userSpaceOnUse">
<stop stop-color="#EA422A"/>
<stop offset="0.0947882" stop-color="#EC5128"/>
<stop offset="0.523442" stop-color="#F69020"/>
<stop offset="0.836995" stop-color="#FDB71B"/>
<stop offset="1" stop-color="#FFC619"/>
</linearGradient>
<linearGradient id="paint12_linear_57_22" x1="6.47643" y1="18.6642" x2="159.448" y2="18.6642" gradientUnits="userSpaceOnUse">
<stop stop-color="#EA422A"/>
<stop offset="0.0947882" stop-color="#EC5128"/>
<stop offset="0.523442" stop-color="#F69020"/>
<stop offset="0.836995" stop-color="#FDB71B"/>
<stop offset="1" stop-color="#FFC619"/>
</linearGradient>
<linearGradient id="paint13_linear_57_22" x1="6.47643" y1="18.6642" x2="159.448" y2="18.6642" gradientUnits="userSpaceOnUse">
<stop stop-color="#EA422A"/>
<stop offset="0.0947882" stop-color="#EC5128"/>
<stop offset="0.523442" stop-color="#F69020"/>
<stop offset="0.836995" stop-color="#FDB71B"/>
<stop offset="1" stop-color="#FFC619"/>
</linearGradient>
<linearGradient id="paint14_linear_57_22" x1="6.47643" y1="18.6642" x2="159.448" y2="18.6642" gradientUnits="userSpaceOnUse">
<stop stop-color="#EA422A"/>
<stop offset="0.0947882" stop-color="#EC5128"/>
<stop offset="0.523442" stop-color="#F69020"/>
<stop offset="0.836995" stop-color="#FDB71B"/>
<stop offset="1" stop-color="#FFC619"/>
</linearGradient>
<linearGradient id="paint15_linear_57_22" x1="6.47652" y1="18.6642" x2="159.449" y2="18.6642" gradientUnits="userSpaceOnUse">
<stop stop-color="#EA422A"/>
<stop offset="0.0947882" stop-color="#EC5128"/>
<stop offset="0.523442" stop-color="#F69020"/>
<stop offset="0.836995" stop-color="#FDB71B"/>
<stop offset="1" stop-color="#FFC619"/>
</linearGradient>
<linearGradient id="paint16_linear_57_22" x1="6.47652" y1="18.6642" x2="159.449" y2="18.6642" gradientUnits="userSpaceOnUse">
<stop stop-color="#EA422A"/>
<stop offset="0.0947882" stop-color="#EC5128"/>
<stop offset="0.523442" stop-color="#F69020"/>
<stop offset="0.836995" stop-color="#FDB71B"/>
<stop offset="1" stop-color="#FFC619"/>
</linearGradient>
<linearGradient id="paint17_linear_57_22" x1="6.47652" y1="18.6642" x2="159.449" y2="18.6642" gradientUnits="userSpaceOnUse">
<stop stop-color="#EA422A"/>
<stop offset="0.0947882" stop-color="#EC5128"/>
<stop offset="0.523442" stop-color="#F69020"/>
<stop offset="0.836995" stop-color="#FDB71B"/>
<stop offset="1" stop-color="#FFC619"/>
</linearGradient>
</defs>
</svg>
