<svg width="40" height="40" viewBox="0 0 40 40" fill="none" xmlns="http://www.w3.org/2000/svg">
<path d="M37.9272 19.7539C37.9272 17.1108 36.4251 14.8036 34.2325 13.6381C34.8314 11.3561 34.2475 8.81973 32.4673 7.03951C31.1374 5.70967 29.3856 5.04752 27.6323 5.04752C27.0389 5.04752 26.4455 5.12338 25.8687 5.27509C24.704 3.08241 22.3967 1.58032 19.7537 1.58032C17.1106 1.58032 14.8033 3.08241 13.6378 5.27509C13.0602 5.12338 12.4676 5.04752 11.8742 5.04752C10.1209 5.04752 8.36909 5.70967 7.03926 7.03951C5.25904 8.81973 4.67512 11.3553 5.27405 13.6381C3.08216 14.8036 1.58008 17.1108 1.58008 19.7539C1.58008 22.397 3.08216 24.7042 5.27484 25.8697C4.67591 28.1517 5.25983 30.6881 7.04005 32.4683C8.36988 33.7981 10.1217 34.4603 11.875 34.4603C12.4684 34.4603 13.0618 34.3844 13.6386 34.2327C14.8033 36.4254 17.1106 37.9275 19.7537 37.9275C22.3967 37.9275 24.704 36.4254 25.8695 34.2327C26.4471 34.3844 27.0397 34.4603 27.6331 34.4603C29.3864 34.4603 31.1382 33.7981 32.468 32.4683C34.2483 30.6881 34.8322 28.1525 34.2332 25.8697C36.4251 24.7042 37.9272 22.397 37.9272 19.7539ZM17.1572 26.0633L11.4065 20.3125L12.5237 19.1953L17.1572 23.8287L26.9836 14.0031L28.1009 15.1204L17.1572 26.0633Z" fill="#606571"/>
</svg>
