<svg width="37" height="36" viewBox="0 0 37 36" fill="none" xmlns="http://www.w3.org/2000/svg">
<path d="M23.31 1.14188L22.7868 1.65094L20.4136 3.96L23.31 6.77813L26.2064 3.96L23.31 1.14188ZM14.06 2.88C13.8637 2.88002 13.6755 2.95588 13.5367 3.09091C13.398 3.22593 13.32 3.40905 13.32 3.6V7.2C13.32 7.39095 13.398 7.57407 13.5367 7.7091C13.6755 7.84412 13.8637 7.91998 14.06 7.92H14.8C15.6846 7.92 15.877 8.17882 16.0661 8.59219C16.2551 9.00555 16.28 9.62676 16.28 10.08C16.28 10.6678 16.2067 11.2858 16.1036 11.88C15.4531 11.657 14.829 11.524 14.2507 11.52C13.5973 11.5155 12.9475 11.694 12.4831 12.1458C12.285 12.3385 12.1523 12.5688 12.0495 12.8123L12.0365 12.8081L3.90375 32.8669L25.2554 25.7541L25.251 25.7414C25.5251 25.6408 25.7827 25.5024 25.9968 25.2942C26.5503 24.7557 26.7004 23.9793 26.6183 23.2031C26.5665 22.7138 26.4209 22.1969 26.2107 21.6605C26.795 21.626 27.4163 21.6 28.12 21.6C29.1749 21.6 30.173 21.7241 30.8213 21.9431C31.1454 22.0526 31.3738 22.1867 31.4846 22.2891C31.5955 22.3914 31.6017 22.421 31.6017 22.5V23.04C31.6017 23.231 31.6797 23.4141 31.8185 23.5491C31.9573 23.6841 32.1455 23.76 32.3417 23.76H35.52C35.619 23.76 35.717 23.7407 35.8082 23.7032C35.8995 23.6657 35.982 23.6108 36.051 23.5417C36.12 23.4726 36.1741 23.3907 36.21 23.3009C36.2458 23.2111 36.2629 23.1152 36.26 23.0189C36.26 23.0189 36.2382 22.1316 36.2383 22.1217C36.2383 22.1213 36.2383 22.1208 36.2383 22.1203C36.2519 20.4858 35.1937 19.219 33.8882 18.4402C32.5827 17.6613 30.9983 17.28 29.5841 17.28C27.2436 17.28 25.5026 17.8708 24.3376 18.4556C23.9702 17.9702 23.5654 17.4811 23.1235 16.9945C23.3874 16.9126 23.6553 16.8363 23.9141 16.7681C24.4355 16.6308 24.9283 16.5182 25.3117 16.4348C25.6952 16.3515 25.9069 16.3157 26.0994 16.2633C26.6968 16.1004 27.5122 15.9013 28.2428 15.4266C28.9734 14.9519 29.6 14.0981 29.6 12.96C29.6 12.6485 29.4447 12.4751 29.3427 12.24H29.6C31.1819 12.24 32.56 10.9971 32.56 9.36V8.37C32.56 8.37 32.5655 8.27191 32.6351 8.16188C32.7047 8.05184 32.7604 7.92 33.3 7.92H34.04C34.2362 7.91998 34.4244 7.84412 34.5632 7.7091C34.702 7.57407 34.7799 7.39095 34.78 7.2V4.32141C34.7799 4.13046 34.702 3.94733 34.5632 3.81231C34.4244 3.67729 34.2362 3.60143 34.04 3.60141H32.8404C30.8735 3.59979 29.6587 4.48563 29.0088 5.32828C28.527 5.95282 28.3786 6.72461 28.2645 7.38703C28.2145 7.67757 28.2245 7.70891 28.2023 7.92H28.12C26.8455 7.92 25.8469 8.36949 25.2395 9.07875C24.632 9.78801 24.42 10.68 24.42 11.52V12.4973C23.2071 12.8864 21.8181 13.5182 20.6231 14.618C19.9187 14.0351 19.2186 13.5143 18.5318 13.0795C19.2902 11.7783 19.98 10.0226 19.98 7.92C19.98 6.68 19.5576 5.42788 18.6734 4.46906C17.7892 3.51025 16.4344 2.88 14.745 2.88H14.7436H14.7335H14.06ZM23.31 3.17813L24.1136 3.96L23.31 4.74188L22.5064 3.96L23.31 3.17813ZM7.76996 4.02188L7.24676 4.53094L4.87355 6.84L7.76996 9.65813L10.6664 6.84L7.76996 4.02188ZM14.8 4.32985C16.0906 4.34421 16.9723 4.78054 17.5721 5.43094C18.1818 6.09212 18.5 7 18.5 7.92C18.5 9.41909 18.0513 10.6421 17.5287 11.6958C17.6118 11.1439 17.76 10.656 17.76 10.08C17.76 9.62676 17.7848 8.8072 17.4189 8.00719C17.0529 7.20717 16.1353 6.48 14.8 6.48V4.32985ZM32.8389 5.04141C32.8394 5.04141 32.8399 5.04141 32.8404 5.04141H33.3V6.48C32.3595 6.48 31.6752 6.93316 31.3748 7.40813C31.0744 7.88309 31.08 8.37 31.08 8.37V9.36C31.08 10.2429 30.423 10.8 29.6 10.8H28.12C27.9851 10.8 27.8529 10.8359 27.7375 10.9037C27.6221 10.9715 27.5279 11.0687 27.4651 11.1848C27.4023 11.3009 27.3733 11.4314 27.3812 11.5624C27.3892 11.6933 27.4337 11.8197 27.51 11.9278C27.5103 11.9282 27.5678 11.999 27.5722 12.0038C27.5766 12.0086 27.5795 12.012 27.5823 12.015C27.5879 12.021 27.5944 12.0272 27.6025 12.0361C27.6188 12.0539 27.6422 12.0803 27.6705 12.1134C27.727 12.1796 27.8019 12.2735 27.8743 12.3806C28.0189 12.5948 28.12 12.8635 28.12 12.96C28.12 13.6493 27.8689 13.9371 27.4204 14.2284C26.972 14.5198 26.3071 14.7113 25.7005 14.8767C25.7251 14.87 25.3836 14.944 24.988 15.03C24.5924 15.116 24.0803 15.2333 23.5282 15.3788C22.6805 15.6021 21.8367 15.9605 21.0538 16.342C22.2931 14.8417 23.9946 14.0257 25.3594 13.6533C25.5149 13.6109 25.6519 13.5202 25.7495 13.3951C25.8471 13.2699 25.8999 13.1171 25.9 12.96V11.52C25.9 10.92 26.0579 10.372 26.3755 10.0013C26.693 9.63051 27.1744 9.36 28.12 9.36H28.86C29.0494 9.35988 29.2316 9.28909 29.369 9.16221C29.5063 9.03533 29.5885 8.86202 29.5985 8.67797C29.5985 8.67797 29.6254 8.19869 29.7243 7.62469C29.8231 7.05069 30.0447 6.38151 30.1911 6.19172C30.1916 6.19172 30.1921 6.19172 30.1925 6.19172C30.6528 5.5946 31.2869 5.04014 32.8389 5.04141ZM7.76996 6.05813L8.57356 6.84L7.76996 7.62188L6.96637 6.84L7.76996 6.05813ZM33.67 12.24L31.82 14.04L33.67 15.84L35.5185 14.04L33.67 12.24ZM4.80996 12.96L2.95996 14.76L4.80996 16.56L6.65852 14.76L4.80996 12.96ZM14.2392 12.96C14.6271 12.9627 15.163 13.1006 15.7784 13.3425C15.5668 14.1286 15.363 14.7082 15.3 14.8936C15.2493 15.0433 15.2505 15.2051 15.3034 15.3542C15.3563 15.5032 15.458 15.6312 15.5929 15.7186C15.7278 15.8059 15.8884 15.8478 16.0502 15.8377C16.2119 15.8276 16.3657 15.7662 16.4881 15.6628C16.5919 15.5749 16.7736 15.41 17.1038 15.0441C17.2802 14.8486 17.4859 14.6013 17.7021 14.3184C18.3322 14.7032 18.9899 15.1696 19.6475 15.7036C19.5518 15.8309 19.4518 15.9509 19.3614 16.0875L17.8785 18.3305C17.7866 18.4704 17.7473 18.6369 17.7672 18.8018C17.787 18.9667 17.8648 19.1199 17.9874 19.2354C18.11 19.3509 18.2699 19.4216 18.44 19.4356C18.61 19.4495 18.7798 19.4059 18.9205 19.312L21.1463 17.8172C21.2769 17.7295 21.4478 17.6387 21.6406 17.5486C22.1714 18.1048 22.6549 18.6655 23.0773 19.2164C22.8407 19.3933 22.6558 19.5497 22.6205 19.5834C22.6201 19.5839 22.6196 19.5844 22.6191 19.5848L20.9396 21.1992C20.8188 21.3155 20.7427 21.4687 20.7242 21.6331C20.7058 21.7976 20.7461 21.9632 20.8383 22.1021C20.9306 22.241 21.0692 22.3448 21.2308 22.396C21.3924 22.4472 21.5673 22.4427 21.7259 22.3833C21.7259 22.3833 22.6973 22.0245 24.6671 21.7927C24.9386 22.3956 25.103 22.9355 25.147 23.3508C25.2016 23.8672 25.0962 24.1342 24.9504 24.2761C24.8934 24.3315 24.8117 24.3778 24.709 24.4139L24.6339 24.4392C24.5026 24.4726 24.3366 24.4885 24.1164 24.4758C23.6546 24.449 23.019 24.2804 22.2997 23.9625C20.861 23.3268 19.0913 22.1111 17.4232 20.4877C15.755 18.8642 14.5053 17.1429 13.8518 15.743C13.5251 15.043 13.3519 14.4232 13.3243 13.9739C13.3106 13.7506 13.3288 13.5819 13.3662 13.4522C13.3706 13.4371 13.3772 13.4269 13.3821 13.4128C13.4197 13.3047 13.4696 13.2222 13.5295 13.1639C13.6512 13.0455 13.8507 12.9573 14.2392 12.96ZM12.3458 15.9694C12.3972 16.0922 12.4449 16.2141 12.5034 16.3392C13.2592 17.9585 14.6025 19.7791 16.3768 21.5058C18.1511 23.2325 20.0226 24.5392 21.6869 25.2745C21.7539 25.3042 21.8185 25.3269 21.8849 25.3547L6.45617 30.4945L12.3458 15.9694ZM29.5841 18.72C30.711 18.72 32.0932 19.0582 33.115 19.6678C34.1368 20.2774 34.7669 21.0681 34.7583 22.1077C34.7577 22.1631 34.761 22.2322 34.7626 22.32H32.9993C32.9421 21.9103 32.7896 21.5082 32.5036 21.2442C32.1698 20.9361 31.7592 20.7366 31.3054 20.5833C30.3979 20.2767 29.285 20.16 28.12 20.16C26.2155 20.16 24.9125 20.3499 23.7826 20.5298C23.9523 20.3721 25.7773 18.72 29.5841 18.72ZM28.49 27.0619L27.9668 27.5709L25.5936 29.88L28.49 32.6981L31.3864 29.88L28.49 27.0619ZM28.49 29.0981L29.2936 29.88L28.49 30.6619L27.6864 29.88L28.49 29.0981Z" fill="url(#paint0_linear_57_119)"/>
<defs>
<linearGradient id="paint0_linear_57_119" x1="19.6101" y1="1.14188" x2="19.6101" y2="32.8669" gradientUnits="userSpaceOnUse">
<stop stop-color="#FFC619"/>
<stop offset="0.520833" stop-color="#F69020"/>
<stop offset="1" stop-color="#EA422A"/>
</linearGradient>
</defs>
</svg>
