<svg width="36" height="36" viewBox="0 0 36 36" fill="none" xmlns="http://www.w3.org/2000/svg">
<path d="M30.5776 1.44562C29.7001 1.44562 28.8226 1.77749 28.1589 2.44124L26.8511 3.74906C26.5979 4.00218 26.5698 4.40437 26.7864 4.69124L25.2564 6.22124C22.1373 9.34031 19.5357 10.2853 16.9229 11.1572C14.3129 12.0291 11.6467 12.825 8.9073 15.5672L2.30074 22.1709C1.15887 23.3128 1.15887 25.1859 2.30074 26.3306L5.98512 30.015L9.66949 33.6966C10.8142 34.8412 12.6873 34.8412 13.8292 33.6966L20.4329 27.0928C23.1751 24.3534 23.9711 21.6872 24.8401 19.0772C25.712 16.4644 26.657 13.8628 29.7789 10.7437L31.3089 9.21375C31.5957 9.43031 31.9979 9.40218 32.2511 9.14906L33.5589 7.84124C34.8892 6.51093 34.8892 4.33406 33.5589 3.00374L32.9964 2.44124C32.3298 1.77749 31.4551 1.44281 30.5776 1.44562ZM30.5776 2.87437C31.0839 2.87718 31.5901 3.07124 31.9811 3.45937L32.5407 4.02187C33.3198 4.80093 33.3198 6.04406 32.5407 6.82312L31.7476 7.61624L30.0657 5.93437C30.0461 5.91468 30.0236 5.895 30.0011 5.87812L28.3811 4.25812L29.1742 3.45937C29.5651 3.07124 30.0714 2.87437 30.5776 2.87437ZM18.0001 2.87999C17.6036 2.87999 17.2801 3.20343 17.2801 3.59999C17.2801 3.99656 17.6036 4.31999 18.0001 4.31999C18.3967 4.31999 18.7201 3.99656 18.7201 3.59999C18.7201 3.20343 18.3967 2.87999 18.0001 2.87999ZM22.3201 5.03999C21.9236 5.03999 21.6001 5.36343 21.6001 5.75999C21.6001 6.15656 21.9236 6.47999 22.3201 6.47999C22.7167 6.47999 23.0401 6.15656 23.0401 5.75999C23.0401 5.36343 22.7167 5.03999 22.3201 5.03999ZM27.7989 5.71499L30.2851 8.20124L28.7579 9.72562C27.6779 10.8084 26.8511 11.8462 26.1704 12.8559L23.1442 9.82968C24.1539 9.14906 25.1917 8.32218 26.2745 7.24218L27.7989 5.71499ZM21.8898 10.6087L25.3914 14.1103C24.7754 15.2016 24.3254 16.2506 23.9542 17.2575L20.0476 15.9525L18.7426 12.0459C19.7495 11.6747 20.7986 11.2247 21.8898 10.6087ZM17.3842 12.5212L18.7961 16.7512C18.8664 16.965 19.0351 17.1337 19.2489 17.2041L23.4789 18.6159C23.4761 18.6159 23.4761 18.6187 23.4761 18.6187C22.5957 21.2625 21.932 23.5603 19.4176 26.0775L12.8139 32.6812C12.2204 33.2719 11.2811 33.2719 10.6876 32.6812L3.31887 25.3125C2.72824 24.7191 2.72824 23.7797 3.31887 23.1862L9.92262 16.5825C12.4398 14.0681 14.7376 13.4044 17.3814 12.5241C17.3814 12.5241 17.3842 12.5241 17.3842 12.5212ZM31.6801 12.96C31.2836 12.96 30.9601 13.2834 30.9601 13.68C30.9601 14.0766 31.2836 14.4 31.6801 14.4C32.0767 14.4 32.4001 14.0766 32.4001 13.68C32.4001 13.2834 32.0767 12.96 31.6801 12.96ZM33.8401 15.84C33.4436 15.84 33.1201 16.1634 33.1201 16.56C33.1201 16.9566 33.4436 17.28 33.8401 17.28C34.2367 17.28 34.5601 16.9566 34.5601 16.56C34.5601 16.1634 34.2367 15.84 33.8401 15.84ZM30.2401 17.28C29.8436 17.28 29.5201 17.6034 29.5201 18C29.5201 18.3966 29.8436 18.72 30.2401 18.72C30.6367 18.72 30.9601 18.3966 30.9601 18C30.9601 17.6034 30.6367 17.28 30.2401 17.28ZM16.5601 18C15.7642 18 15.1201 18.6441 15.1201 19.44C15.1201 20.2359 15.7642 20.88 16.5601 20.88C17.3561 20.88 18.0001 20.2359 18.0001 19.44C18.0001 18.6441 17.3561 18 16.5601 18ZM11.0195 18.4078C10.8311 18.4106 10.6539 18.4866 10.5189 18.6187L5.98512 23.1553C5.70387 23.4366 5.70387 23.895 5.98512 24.1762L11.8239 30.015C12.1051 30.2934 12.5636 30.2934 12.8448 30.015L17.3786 25.4784C17.6598 25.1972 17.6598 24.7416 17.3786 24.4603L11.5398 18.6187C11.402 18.4837 11.2136 18.4078 11.0195 18.4078ZM11.0279 20.1487L15.8514 24.9694L12.3329 28.485L7.5123 23.6672L11.0279 20.1487Z" fill="url(#paint0_linear_57_107)"/>
<defs>
<linearGradient id="paint0_linear_57_107" x1="18.0022" y1="1.4456" x2="18.0022" y2="34.5551" gradientUnits="userSpaceOnUse">
<stop stop-color="#FFC619"/>
<stop offset="0.520833" stop-color="#F69020"/>
<stop offset="1" stop-color="#EA422A"/>
</linearGradient>
</defs>
</svg>
