<svg width="29" height="29" viewBox="0 0 29 29" fill="none" xmlns="http://www.w3.org/2000/svg">
<path d="M14.4997 2.362C10.0277 2.362 6.40771 5.98199 6.40771 10.454C6.40771 14.1579 8.34685 18.1146 10.2516 21.1843C12.1564 24.2539 14.064 26.4404 14.064 26.4404C14.1185 26.503 14.186 26.553 14.2616 26.5872C14.3373 26.6213 14.4194 26.6388 14.5024 26.6384C14.5855 26.6379 14.6674 26.6196 14.7427 26.5847C14.818 26.5498 14.8849 26.499 14.9389 26.4359C14.9389 26.4359 16.8452 24.2076 18.7489 21.1176C20.6527 18.0277 22.5917 14.0765 22.5917 10.454C22.5917 5.98199 18.9717 2.362 14.4997 2.362ZM14.4997 3.518C18.3509 3.518 21.4357 6.60281 21.4357 10.454C21.4357 13.6519 19.6178 17.5034 17.7645 20.5114C16.26 22.9534 15.0087 24.512 14.4963 25.1354C13.9813 24.5197 12.7342 22.9927 11.2338 20.5746C9.38158 17.5897 7.56371 13.7439 7.56371 10.454C7.56371 6.60281 10.6485 3.518 14.4997 3.518ZM14.4997 6.408C12.277 6.408 10.4537 8.23133 10.4537 10.454C10.4537 12.6767 12.277 14.5 14.4997 14.5C16.7224 14.5 18.5457 12.6767 18.5457 10.454C18.5457 8.23133 16.7224 6.408 14.4997 6.408ZM14.4997 7.564C16.0918 7.564 17.3897 8.86187 17.3897 10.454C17.3897 12.0461 16.0918 13.344 14.4997 13.344C12.9076 13.344 11.6097 12.0461 11.6097 10.454C11.6097 8.86187 12.9076 7.564 14.4997 7.564Z" fill="#606571"/>
</svg>
