<svg width="38" height="38" viewBox="0 0 38 38" fill="none" xmlns="http://www.w3.org/2000/svg">
<path d="M25.8398 0.712494C21.2679 0.712494 17.5214 4.40265 17.4323 8.95374C16.9929 9.64546 11.1653 18.8308 6.57855 23.4175L6.6023 23.4412C6.53996 23.4887 6.3173 23.6194 6.1748 23.9875C6.01152 24.4091 6.14214 25.1186 6.6023 25.5787L7.67105 26.6475L6.38855 27.93C5.07636 29.2422 4.49152 30.7295 4.53605 32.1337C4.58058 33.538 5.20996 34.8264 6.1748 35.7437C8.10152 37.5784 11.4681 38.003 13.9648 35.5062L24.3911 25.08C26.4187 23.0523 28.6364 23.4709 29.9961 24.795C30.6759 25.457 31.1153 26.3536 31.1361 27.3125C31.1568 28.2714 30.7917 29.3194 29.7348 30.3762L24.9135 35.1975C24.5989 35.5122 24.5989 36.0228 24.9135 36.3375C25.2282 36.6522 25.7389 36.6522 26.0535 36.3375L30.8511 31.5162C32.1632 30.2041 32.757 28.6989 32.7273 27.2887C32.6976 25.8786 32.0682 24.5842 31.1123 23.655C30.1564 22.7258 28.8353 22.1528 27.431 22.135C26.0268 22.1172 24.5543 22.6605 23.2748 23.94L12.8485 34.3662C10.901 36.3137 8.66855 35.8922 7.29105 34.58C6.6023 33.9239 6.15699 33.0303 6.1273 32.0862C6.09761 31.1422 6.44793 30.1031 7.5048 29.0462L7.57605 28.9987L8.7873 27.7875L9.3573 28.3337C9.81152 28.788 10.4379 28.9601 10.8773 28.8325C11.2603 28.7227 11.3939 28.4703 11.4473 28.405L11.4948 28.4525C15.9657 23.9786 25.3114 17.9728 26.0061 17.5275C30.5601 17.4384 34.2473 13.6948 34.2473 9.11999C34.2473 4.49171 30.4651 0.712494 25.8398 0.712494ZM25.8398 2.32749C29.6012 2.32749 32.6323 5.35562 32.6323 9.11999C32.6323 10.6251 32.1484 12.0116 31.3261 13.1337L21.826 3.63374C22.9482 2.8114 24.3346 2.32749 25.8398 2.32749ZM20.6623 4.72624L30.2573 14.2975C29.0728 15.3098 27.529 15.9125 25.8398 15.9125C22.0754 15.9125 19.0473 12.8873 19.0473 9.11999C19.0473 7.43671 19.6559 5.91078 20.6623 4.72624ZM17.741 11.3287C18.5278 14.1995 20.8018 16.4736 23.6785 17.2425C20.5821 19.285 14.1311 23.6698 10.4736 27.3125C10.4617 27.2976 10.4646 27.3036 10.4261 27.265L7.67105 24.4862C11.3879 20.7605 15.7253 14.4133 17.741 11.3287ZM17.6223 16.3637C17.3937 16.3637 17.1532 16.4528 16.981 16.625L14.9385 18.6912C14.5912 19.0386 14.5912 19.6026 14.9385 19.95L15.0098 20.0212C15.3542 20.3686 15.9212 20.3686 16.2685 20.0212L18.3348 17.955C18.6821 17.6106 18.6792 17.0436 18.3348 16.6962L18.2398 16.625C18.0676 16.4528 17.8509 16.3637 17.6223 16.3637Z" fill="url(#paint0_linear_57_101)"/>
<defs>
<linearGradient id="paint0_linear_57_101" x1="19.3905" y1="0.712494" x2="19.3905" y2="37.25" gradientUnits="userSpaceOnUse">
<stop stop-color="#FFC619"/>
<stop offset="0.520833" stop-color="#F69020"/>
<stop offset="1" stop-color="#EA422A"/>
</linearGradient>
</defs>
</svg>
