<svg width="36" height="37" viewBox="0 0 36 37" fill="none" xmlns="http://www.w3.org/2000/svg">
<g clip-path="url(#clip0_57_113)">
<path d="M24.6599 1.54938L24.2549 2.17375L17.8649 11.6319L12.2399 13.3431L12.2174 13.3663H12.1949C11.4834 13.6409 10.9321 14.1207 10.5074 14.7306L10.4849 14.7538V14.7769L5.62492 22.4775L5.44492 21.8763L0.719922 23.3331L0.0449219 23.5644L0.247422 24.2581L3.48742 35.4275L3.68992 36.1444L4.38742 35.9363L8.41492 34.6644L9.11242 34.4563L8.88742 33.7625L8.48242 32.3519L14.1299 31.0569C15.8652 30.6522 17.4459 29.6896 18.5624 28.2125L18.8324 27.8656L21.5549 29.8313L22.1399 30.2706L22.5449 29.6463L35.5949 10.2675L35.9999 9.66625L35.3924 9.22688L25.2449 1.98875L24.6599 1.54938ZM25.0199 3.6075L33.9974 10.0363L28.8449 17.6906C29.5059 15.5255 28.4934 12.9327 26.3474 11.4006C26.3418 11.3977 26.353 11.3804 26.3474 11.3775C26.3418 11.3717 26.3305 11.3833 26.3249 11.3775C25.0734 10.4698 23.5855 10.0912 22.2299 10.2213C21.4537 10.2964 20.7252 10.5508 20.0924 10.9613L25.0199 3.6075ZM28.0349 8.00125C27.6412 7.99836 27.2615 8.19781 27.0224 8.55625C26.6399 9.1286 26.7805 9.8975 27.3374 10.2906C27.8943 10.6838 28.6649 10.5392 29.0474 9.96688C29.4299 9.39453 29.2893 8.62563 28.7324 8.2325C28.5243 8.08508 28.2712 8.00414 28.0349 8.00125ZM22.4099 11.6781C23.4055 11.5856 24.5165 11.866 25.4924 12.58L25.5149 12.6031C27.554 14.0455 28.1615 16.491 27.1349 18.0144H27.1124C26.5949 18.8353 25.7315 19.2805 24.6599 19.3325C24.6965 18.4855 24.404 17.6415 23.7599 17.02C23.7543 17.0142 23.743 17.0258 23.7374 17.02C22.7559 16.0227 21.2259 15.8551 20.0924 16.6269C19.4062 15.3579 19.3555 13.9791 20.0249 12.9963C20.5368 12.236 21.4143 11.7706 22.4099 11.6781ZM16.5824 13.5744L13.1399 19.1475L12.7574 19.795L13.3874 20.165L15.6824 21.5756L16.1099 21.8531L16.5149 21.5063L20.1599 18.4769C20.3455 18.4162 20.4974 18.2832 20.5874 18.1069L20.7674 17.9681C21.3412 17.4767 22.2187 17.5172 22.7474 18.0606V18.0838H22.7699C23.3605 18.6388 23.414 19.5059 22.9049 20.1881L17.4374 27.2875C16.5374 28.4755 15.2493 29.2878 13.8149 29.6231L8.07742 30.9413L6.05242 23.9575L6.27742 23.865L6.52492 23.7725L6.65992 23.5644L11.6774 15.6094C11.9615 15.1989 12.254 14.9474 12.6674 14.7769C12.6843 14.7711 12.6955 14.7595 12.7124 14.7538L16.5824 13.5744ZM18.2249 13.6669C17.9465 14.9532 18.2277 16.3494 18.9449 17.575L15.9974 20.0494L14.7599 19.2863L18.2249 13.6669ZM27.4049 19.8413L21.7799 28.2125L19.7099 26.7094L24.0299 21.1131V21.09H24.0524C24.1199 21.0004 24.1762 20.9079 24.2324 20.8125C25.4024 20.8472 26.5302 20.5379 27.4049 19.8413ZM4.47742 23.7031L7.31242 33.485L4.65742 34.3175L1.82242 24.5588L4.47742 23.7031Z" fill="url(#paint0_linear_57_113)"/>
</g>
<defs>
<linearGradient id="paint0_linear_57_113" x1="18.0224" y1="1.54938" x2="18.0224" y2="36.1444" gradientUnits="userSpaceOnUse">
<stop stop-color="#FFC619"/>
<stop offset="0.520833" stop-color="#F69020"/>
<stop offset="1" stop-color="#EA422A"/>
</linearGradient>
<clipPath id="clip0_57_113">
<rect width="36" height="37" fill="white"/>
</clipPath>
</defs>
</svg>
