<svg width="246" height="247" viewBox="0 0 246 247" fill="none" xmlns="http://www.w3.org/2000/svg">
<g filter="url(#filter0_d_59_122)">
<circle cx="122.736" cy="105.801" r="64.4015" fill="#FFC619" fill-opacity="0.19" shape-rendering="crispEdges"/>
</g>
<g filter="url(#filter1_d_59_122)">
<circle cx="122.736" cy="105.801" r="60.9015" stroke="url(#paint0_angular_59_122)" stroke-opacity="0.66" stroke-width="7" shape-rendering="crispEdges"/>
</g>
<g filter="url(#filter2_d_59_122)">
<circle cx="123" cy="106.065" r="70" stroke="url(#paint1_angular_59_122)" stroke-opacity="0.4" stroke-width="2" shape-rendering="crispEdges"/>
</g>
<g filter="url(#filter3_d_59_122)">
<circle cx="122.736" cy="106.329" r="49.6766" stroke="url(#paint2_angular_59_122)" stroke-opacity="0.4" stroke-width="2" shape-rendering="crispEdges"/>
</g>
<path d="M83.4887 89.8001L81.1367 93.4721L78.7967 89.8001H76.3367V98.2001H79.0367V94.3481L80.4167 96.4961H81.8687L83.2487 94.3601V98.2001H85.9487V89.8001H83.4887ZM87.1056 95.3201C87.1056 97.3961 88.6176 98.3921 90.4176 98.3921C92.2176 98.3921 93.7416 97.3961 93.7416 95.3201C93.7416 93.2441 92.2176 92.2481 90.4176 92.2481C88.6176 92.2481 87.1056 93.2441 87.1056 95.3201ZM91.2696 95.3201C91.2696 95.8601 91.0536 96.3041 90.4176 96.3041C89.7936 96.3041 89.5776 95.8601 89.5776 95.3201C89.5776 94.7801 89.7936 94.3361 90.4176 94.3361C91.0536 94.3361 91.2696 94.7801 91.2696 95.3201ZM104.317 98.2001L102.817 95.3441L104.257 92.4401H101.629L100.741 94.3961H100.429V92.4401H97.9934V94.3961H97.6814L96.7934 92.4401H94.1654L95.6054 95.3441L94.1054 98.2001H96.7334L97.6214 96.3641H97.9934V98.2001H100.429V96.3641H100.801L101.689 98.2001H104.317ZM107.754 98.2001V96.2921H108.918V98.2001H111.45V92.4401H108.918V94.3481H107.754V92.4401H105.222V98.2001H107.754ZM112.549 95.3201C112.549 97.3961 114.061 98.3921 115.861 98.3921C117.661 98.3921 119.185 97.3961 119.185 95.3201C119.185 93.2441 117.661 92.2481 115.861 92.2481C114.061 92.2481 112.549 93.2441 112.549 95.3201ZM116.713 95.3201C116.713 95.8601 116.497 96.3041 115.861 96.3041C115.237 96.3041 115.021 95.8601 115.021 95.3201C115.021 94.7801 115.237 94.3361 115.861 94.3361C116.497 94.3361 116.713 94.7801 116.713 95.3201ZM132.125 98.2001V92.4401H129.605V96.1841H128.741V92.4401H126.209V96.1841H125.357V92.4401H122.825V98.2001H132.125ZM136.738 95.5961L135.55 92.4401H132.934L135.574 98.2361C135.334 98.7041 134.95 98.8961 134.506 98.8961C134.194 98.8961 133.93 98.8481 133.654 98.7761V100.816C134.062 100.936 134.458 101.02 134.914 101.02C136.09 101.02 137.302 100.456 137.986 98.5481L140.182 92.4401H137.614L136.738 95.5961ZM143.369 98.2001V95.7761L144.257 97.1921H145.133L146.021 95.7761V98.2001H148.313V92.4401H146.249L144.689 94.9121L143.141 92.4401H141.077V98.2001H143.369ZM149.411 95.2841C149.411 97.5041 151.187 98.3921 153.035 98.3921C153.935 98.3921 154.571 98.2841 155.135 98.0921V96.3881C154.643 96.5441 154.091 96.6161 153.479 96.6161C152.735 96.6161 152.039 96.3881 151.835 95.8961H155.387C155.747 94.2281 155.099 92.2481 152.507 92.2481C151.223 92.2481 149.411 93.0281 149.411 95.2841ZM153.335 94.7321H151.811C151.811 94.2641 152.135 93.9161 152.639 93.9161C153.227 93.9161 153.395 94.3961 153.335 94.7321ZM160.27 98.2001V94.4561H161.758V92.4401H156.262V94.4561H157.75V98.2001H160.27ZM166.441 98.2001C168.073 98.2001 168.889 97.2521 168.889 96.0521C168.889 94.8521 168.073 93.9161 166.441 93.9161H165.325V92.4401H162.793V98.2001H166.441ZM165.313 95.4521H165.733C166.165 95.4521 166.393 95.6801 166.393 96.0281C166.393 96.3641 166.165 96.5921 165.733 96.5921H165.313V95.4521Z" fill="white"/>
<path d="M75.4279 117.4V113.9H76.1699L78.2559 117.4H81.8119L78.7739 112.458L81.7559 107.6H78.1999L76.2399 111.072H75.4279V107.6H72.1939V117.4H75.4279ZM84.6615 111.492V110.68H82.0715V120.48H85.0255V116.994C85.4315 117.358 86.0475 117.624 86.8595 117.624C89.0015 117.624 89.9395 115.888 89.9395 114.04C89.9395 112.192 89.0015 110.456 86.8595 110.456C85.8515 110.456 85.1095 110.932 84.6615 111.492ZM86.9015 114.04C86.9015 114.642 86.5935 115.258 85.8795 115.258C85.4735 115.258 85.1375 115.02 85.0115 114.782V113.298C85.1515 113.06 85.4735 112.822 85.8795 112.822C86.5935 112.822 86.9015 113.438 86.9015 114.04ZM94.134 114.362L92.748 110.68H89.696L92.776 117.442C92.496 117.988 92.048 118.212 91.53 118.212C91.166 118.212 90.858 118.156 90.536 118.072V120.452C91.012 120.592 91.474 120.69 92.006 120.69C93.378 120.69 94.792 120.032 95.59 117.806L98.152 110.68H95.156L94.134 114.362ZM101.589 117.4V113.032H104.011V110.68H98.6352V117.4H101.589ZM107.537 112.976H108.335V117.4H111.289V110.68H104.989C104.863 113.032 104.849 114.866 103.939 115.034C103.771 115.062 103.589 115.048 103.365 114.992V117.372C103.799 117.512 104.289 117.582 104.723 117.582C106.641 117.582 107.271 115.874 107.537 112.976ZM112.021 114.04C112.021 116.462 113.785 117.624 115.885 117.624C117.985 117.624 119.763 116.462 119.763 114.04C119.763 111.618 117.985 110.456 115.885 110.456C113.785 110.456 112.021 111.618 112.021 114.04ZM116.879 114.04C116.879 114.67 116.627 115.188 115.885 115.188C115.157 115.188 114.905 114.67 114.905 114.04C114.905 113.41 115.157 112.892 115.885 112.892C116.627 112.892 116.879 113.41 116.879 114.04ZM120.207 114.222C120.207 116.644 122.069 117.624 124.001 117.624C124.855 117.624 125.639 117.484 126.339 117.246V114.838C125.919 115.034 125.317 115.174 124.673 115.174C123.917 115.174 123.245 114.866 123.245 114.04C123.245 113.186 123.945 112.878 124.729 112.878C125.261 112.878 125.849 113.046 126.269 113.256V110.834C125.625 110.582 124.911 110.428 124.197 110.428C122.195 110.428 120.207 111.506 120.207 114.222ZM130.854 114.362L129.468 110.68H126.416L129.496 117.442C129.216 117.988 128.768 118.212 128.25 118.212C127.886 118.212 127.578 118.156 127.256 118.072V120.452C127.732 120.592 128.194 120.69 128.726 120.69C130.098 120.69 131.512 120.032 132.31 117.806L134.872 110.68H131.876L130.854 114.362ZM139.667 117.4V113.032H141.403V110.68H134.991V113.032H136.727V117.4H139.667ZM141.662 114.04C141.662 116.462 143.426 117.624 145.526 117.624C147.626 117.624 149.404 116.462 149.404 114.04C149.404 111.618 147.626 110.456 145.526 110.456C143.426 110.456 141.662 111.618 141.662 114.04ZM146.52 114.04C146.52 114.67 146.268 115.188 145.526 115.188C144.798 115.188 144.546 114.67 144.546 114.04C144.546 113.41 144.798 112.892 145.526 112.892C146.268 112.892 146.52 113.41 146.52 114.04ZM156.988 117.4V110.68H154.034V113.326C153.852 113.396 153.642 113.438 153.432 113.438C153.11 113.438 152.844 113.298 152.844 112.906V110.68H149.89V113.284C149.89 115.076 151.262 115.79 152.508 115.79C153.082 115.79 153.586 115.734 154.034 115.58V117.4H156.988ZM160.954 117.4V115.174H162.312V117.4H165.266V110.68H162.312V112.906H160.954V110.68H158V117.4H160.954ZM165.988 114.04C165.988 116.462 167.752 117.624 169.852 117.624C171.952 117.624 173.73 116.462 173.73 114.04C173.73 111.618 171.952 110.456 169.852 110.456C167.752 110.456 165.988 111.618 165.988 114.04ZM170.846 114.04C170.846 114.67 170.594 115.188 169.852 115.188C169.124 115.188 168.872 114.67 168.872 114.04C168.872 113.41 169.124 112.892 169.852 112.892C170.594 112.892 170.846 113.41 170.846 114.04Z" fill="url(#paint3_linear_59_122)"/>
<g clip-path="url(#clip0_59_122)">
<path d="M113.762 45.6227C113.762 50.5848 117.774 54.5967 122.736 54.5967C127.698 54.5967 131.71 50.5848 131.71 45.6227C131.71 40.6606 127.698 36.6487 122.736 36.6487C117.774 36.6487 113.762 40.6606 113.762 45.6227Z" fill="#131517"/>
<path d="M122.736 56.1803C116.929 56.1803 112.178 51.4294 112.178 45.6227C112.178 39.816 116.929 35.0651 122.736 35.0651C125.217 35.0651 127.645 35.9625 129.546 37.5989L128.173 39.1825C126.695 37.8628 124.742 37.1766 122.736 37.1766C118.09 37.1766 114.29 40.9773 114.29 45.6227C114.29 50.268 118.09 54.0688 122.736 54.0688V56.1803Z" fill="#606571"/>
<path d="M124.32 39.2881L120.097 36.1208L124.32 32.9536V39.2881Z" fill="#FFC619"/>
<path d="M115.874 45.6227C115.874 45.9394 115.663 46.1506 115.346 46.1506H113.762V45.0948H115.346C115.663 45.0948 115.874 45.306 115.874 45.6227ZM122.736 52.4852C122.419 52.4852 122.208 52.6963 122.208 53.013V54.5967H123.264V53.013C123.264 52.6963 123.053 52.4852 122.736 52.4852ZM130.127 45.0948C129.81 45.0948 129.599 45.306 129.599 45.6227C129.599 45.9394 129.81 46.1506 130.127 46.1506H131.71V45.0948H130.127Z" fill="white"/>
<path d="M122.736 56.1803C116.929 56.1803 112.178 51.4294 112.178 45.6227C112.178 43.1416 113.076 40.7134 114.712 38.813L116.296 40.1855C114.976 41.6636 114.29 43.6167 114.29 45.6227C114.29 50.268 118.09 54.0688 122.736 54.0688C127.381 54.0688 131.182 50.268 131.182 45.6227C131.182 40.9773 127.381 37.1766 122.736 37.1766V35.0651C128.543 35.0651 133.293 39.816 133.293 45.6227C133.293 51.4294 128.543 56.1803 122.736 56.1803Z" fill="#FFC619"/>
<path d="M122.208 48.79H117.985V47.8398L119.991 45.7283C120.466 45.1476 120.73 44.7253 120.73 44.4086C120.73 44.1446 120.678 43.9335 120.572 43.7751C120.466 43.6168 120.308 43.564 120.044 43.564C119.833 43.564 119.622 43.6695 119.516 43.8279C119.358 44.0391 119.305 44.2502 119.305 44.5141H117.985C117.985 44.1446 118.091 43.7751 118.249 43.4584C118.46 43.1417 118.724 42.8777 119.041 42.7194C119.358 42.561 119.622 42.4554 120.044 42.4554C120.73 42.4554 121.258 42.6138 121.628 42.9305C121.997 43.2472 122.156 43.6695 122.156 44.2502C122.156 44.5141 122.103 44.7253 121.997 44.9892C121.892 45.2004 121.786 45.4643 121.575 45.7283C121.364 45.9922 121.047 46.3089 120.625 46.7312L119.886 47.7342H122.208V48.79ZM126.854 46.6785H127.487V47.7342H126.854V48.79H125.376V47.7342H122.947L122.842 46.8896L125.376 42.4554H126.854V46.6785ZM124.214 46.6785H125.376V44.3558L125.27 44.5141L124.214 46.6785Z" fill="white"/>
</g>
<defs>
<filter id="filter0_d_59_122" x="6.33447" y="6.39966" width="232.803" height="232.803" filterUnits="userSpaceOnUse" color-interpolation-filters="sRGB">
<feFlood flood-opacity="0" result="BackgroundImageFix"/>
<feColorMatrix in="SourceAlpha" type="matrix" values="0 0 0 0 0 0 0 0 0 0 0 0 0 0 0 0 0 0 127 0" result="hardAlpha"/>
<feOffset dy="17"/>
<feGaussianBlur stdDeviation="26"/>
<feComposite in2="hardAlpha" operator="out"/>
<feColorMatrix type="matrix" values="0 0 0 0 0 0 0 0 0 0 0 0 0 0 0 0 0 0 0.58 0"/>
<feBlend mode="normal" in2="BackgroundImageFix" result="effect1_dropShadow_59_122"/>
<feBlend mode="normal" in="SourceGraphic" in2="effect1_dropShadow_59_122" result="shape"/>
</filter>
<filter id="filter1_d_59_122" x="6.33447" y="6.39966" width="232.803" height="232.803" filterUnits="userSpaceOnUse" color-interpolation-filters="sRGB">
<feFlood flood-opacity="0" result="BackgroundImageFix"/>
<feColorMatrix in="SourceAlpha" type="matrix" values="0 0 0 0 0 0 0 0 0 0 0 0 0 0 0 0 0 0 127 0" result="hardAlpha"/>
<feOffset dy="17"/>
<feGaussianBlur stdDeviation="26"/>
<feComposite in2="hardAlpha" operator="out"/>
<feColorMatrix type="matrix" values="0 0 0 0 0 0 0 0 0 0 0 0 0 0 0 0 0 0 0.58 0"/>
<feBlend mode="normal" in2="BackgroundImageFix" result="effect1_dropShadow_59_122"/>
<feBlend mode="normal" in="SourceGraphic" in2="effect1_dropShadow_59_122" result="shape"/>
</filter>
<filter id="filter2_d_59_122" x="0" y="0.0650635" width="246" height="246" filterUnits="userSpaceOnUse" color-interpolation-filters="sRGB">
<feFlood flood-opacity="0" result="BackgroundImageFix"/>
<feColorMatrix in="SourceAlpha" type="matrix" values="0 0 0 0 0 0 0 0 0 0 0 0 0 0 0 0 0 0 127 0" result="hardAlpha"/>
<feOffset dy="17"/>
<feGaussianBlur stdDeviation="26"/>
<feComposite in2="hardAlpha" operator="out"/>
<feColorMatrix type="matrix" values="0 0 0 0 0 0 0 0 0 0 0 0 0 0 0 0 0 0 0.58 0"/>
<feBlend mode="normal" in2="BackgroundImageFix" result="effect1_dropShadow_59_122"/>
<feBlend mode="normal" in="SourceGraphic" in2="effect1_dropShadow_59_122" result="shape"/>
</filter>
<filter id="filter3_d_59_122" x="20.0591" y="20.6524" width="205.353" height="205.353" filterUnits="userSpaceOnUse" color-interpolation-filters="sRGB">
<feFlood flood-opacity="0" result="BackgroundImageFix"/>
<feColorMatrix in="SourceAlpha" type="matrix" values="0 0 0 0 0 0 0 0 0 0 0 0 0 0 0 0 0 0 127 0" result="hardAlpha"/>
<feOffset dy="17"/>
<feGaussianBlur stdDeviation="26"/>
<feComposite in2="hardAlpha" operator="out"/>
<feColorMatrix type="matrix" values="0 0 0 0 0 0 0 0 0 0 0 0 0 0 0 0 0 0 0.58 0"/>
<feBlend mode="normal" in2="BackgroundImageFix" result="effect1_dropShadow_59_122"/>
<feBlend mode="normal" in="SourceGraphic" in2="effect1_dropShadow_59_122" result="shape"/>
</filter>
<radialGradient id="paint0_angular_59_122" cx="0" cy="0" r="1" gradientUnits="userSpaceOnUse" gradientTransform="translate(122.736 105.801) rotate(90) scale(64.4015)">
<stop offset="0.489041" stop-color="#F69020" stop-opacity="0"/>
<stop offset="0.503497" stop-color="#FFC619"/>
</radialGradient>
<radialGradient id="paint1_angular_59_122" cx="0" cy="0" r="1" gradientUnits="userSpaceOnUse" gradientTransform="translate(123 106.065) rotate(90) scale(71)">
<stop offset="0.489041" stop-color="#FFC619" stop-opacity="0"/>
<stop offset="0.503497" stop-color="#FFC619"/>
</radialGradient>
<radialGradient id="paint2_angular_59_122" cx="0" cy="0" r="1" gradientUnits="userSpaceOnUse" gradientTransform="translate(122.736 106.329) rotate(90) scale(50.6766)">
<stop offset="0.489041" stop-color="#F69020" stop-opacity="0"/>
<stop offset="0.503497" stop-color="#F69020"/>
</radialGradient>
<linearGradient id="paint3_linear_59_122" x1="122.736" y1="101.4" x2="122.736" y2="122.3" gradientUnits="userSpaceOnUse">
<stop stop-color="#FFC619"/>
<stop offset="1" stop-color="#F69020"/>
</linearGradient>
<clipPath id="clip0_59_122">
<rect width="25.3383" height="25.3383" fill="white" transform="translate(110.067 32.9536)"/>
</clipPath>
</defs>
</svg>
